<svg width="16" height="16" viewBox="0 0 16 16" fill="none" xmlns="http://www.w3.org/2000/svg">
<path d="M2.31304 14.1485C2.52174 14.3572 2.78261 14.4615 3.06957 14.4615C3.35652 14.4615 3.61739 14.3572 3.82609 14.1485L8 9.97458L12.1739 14.1485C12.3826 14.3572 12.6435 14.4615 12.9304 14.4615C13.2174 14.4615 13.4783 14.3572 13.687 14.1485C14.1043 13.7311 14.1043 13.0528 13.687 12.6355L9.51304 8.46154L13.687 4.28763C14.1043 3.87024 14.1043 3.19197 13.687 2.77458C13.2696 2.35719 12.5913 2.35719 12.1739 2.77458L8 6.9485L3.82609 2.77458C3.4087 2.35719 2.73043 2.35719 2.31304 2.77458C1.89565 3.19197 1.89565 3.87024 2.31304 4.28763L6.48696 8.46154L2.31304 12.6355C1.89565 13.0528 1.89565 13.7311 2.31304 14.1485Z" fill="currentColor"/>
</svg>
