<svg width="16" height="16" viewBox="0 0 16 16" fill="none" xmlns="http://www.w3.org/2000/svg">
<g clip-path="url(#clip0_2_19386)">
<path d="M6.66663 12.6667C5.47994 12.6667 4.3199 12.3148 3.33321 11.6555C2.34651 10.9962 1.57748 10.0591 1.12335 8.96277C0.669226 7.86641 0.550406 6.66001 0.781917 5.49613C1.01343 4.33224 1.58487 3.26314 2.42399 2.42403C3.2631 1.58491 4.3322 1.01347 5.49609 0.781955C6.65997 0.550444 7.86637 0.669264 8.96273 1.12339C10.0591 1.57752 10.9962 2.34655 11.6554 3.33325C12.3147 4.31994 12.6666 5.47998 12.6666 6.66667C12.6647 8.25737 12.0319 9.78237 10.9071 10.9072C9.78233 12.032 8.25733 12.6647 6.66663 12.6667ZM6.66663 2C5.74365 2 4.8414 2.2737 4.07397 2.78648C3.30654 3.29926 2.7084 4.02809 2.35519 4.88081C2.00198 5.73353 1.90957 6.67184 2.08963 7.57709C2.2697 8.48233 2.71415 9.31385 3.3668 9.9665C4.01944 10.6191 4.85096 11.0636 5.75621 11.2437C6.66145 11.4237 7.59976 11.3313 8.45249 10.9781C9.30521 10.6249 10.034 10.0268 10.5468 9.25933C11.0596 8.4919 11.3333 7.58965 11.3333 6.66667C11.3319 5.42942 10.8398 4.24326 9.9649 3.36839C9.09004 2.49353 7.90387 2.00141 6.66663 2Z" fill="currentColor"/>
<path d="M4.66659 6.66667H3.33325C3.33431 5.78294 3.68584 4.9357 4.31073 4.31081C4.93562 3.68592 5.78286 3.33439 6.66658 3.33333V4.66667C6.13615 4.66667 5.62744 4.87738 5.25237 5.25245C4.8773 5.62752 4.66659 6.13623 4.66659 6.66667Z" fill="currentColor"/>
<path d="M15.1379 14.1953L12.3006 11.358C12.0157 11.7002 11.7001 12.0158 11.3579 12.3007L14.1952 15.138C14.321 15.2594 14.4894 15.3266 14.6642 15.3251C14.839 15.3236 15.0062 15.2535 15.1298 15.1299C15.2534 15.0063 15.3235 14.8391 15.325 14.6643C15.3265 14.4895 15.2593 14.3211 15.1379 14.1953Z" fill="currentColor"/>
</g>
<defs>
<clipPath id="clip0_2_19386">
<rect width="16" height="16" fill="white"/>
</clipPath>
</defs>
</svg>
